<svg xmlns="http://www.w3.org/2000/svg" xmlns:xlink="http://www.w3.org/1999/xlink" aria-hidden="true" role="img" class="iconify iconify--logos" width="31.88" height="32" preserveAspectRatio="xMidYMid meet" viewBox="0 0 256 257"><defs><linearGradient id="IconifyId1813088fe1fbc01fb466" x1="-.828%" x2="57.636%" y1="7.652%" y2="78.411%"><stop offset="0%" stop-color="#41D1FF"></stop><stop offset="100%" stop-color="#BD34FE"></stop></linearGradient><linearGradient id="IconifyId1813088fe1fbc01fb467" x1="43.376%" x2="50.316%" y1="2.242%" y2="89.03%"><stop offset="0%" stop-color="#FFEA83"></stop><stop offset="8.333%" stop-color="#FFDD35"></stop><stop offset="100%" stop-color="#FFA800"></stop></linearGradient></defs><path fill="url(#IconifyId1813088fe1fbc01fb466)" d="M255.153 37.938L134.897 252.976c-2.483 4.44-8.862 4.466-11.382.048L.875 37.958c-1.986-3.474-.292-7.828 3.518-9.043L127.393.189c1.948-.62 4.048.683 4.382 2.72l4.895 29.893c.253 1.546.126 3.129-.356 4.594l-5.323 16.183c-.93 2.827-2.678 5.28-4.968 6.973l-16.71 12.355c-1.637 1.21-1.306 3.737.585 4.505l6.39 2.596c.732.297 1.554.269 2.264-.078l10.975-5.362c3.21-1.569 6.883-1.464 10.02.287l14.996 8.368c.85.474 1.886.223 2.45-.595l5.12-7.416c1.168-1.692 3.167-2.617 5.23-2.418l14.33 1.38c.636.061 1.258-.236 1.527-.729l5.962-10.906c.94-1.72 2.756-2.778 4.716-2.75l16.16 2.37c.72.01 1.353-.417 1.583-1.066l4.634-13.078c.642-1.812 2.316-3.064 4.232-3.166l17.433-.928c2.413-.129 4.312 1.623 4.673 3.999l.006.039c.534 3.498 3.292 6.136 6.643 6.354l10.59 2.067c2.906.568 5.27.766 7.6.611z"></path><path fill="url(#IconifyId1813088fe1fbc01fb467)" d="M185.432.063L96.44 17.501a3.268 3.268 0 0 0-2.634 3.014l-5.474 72.916a3.268 3.268 0 0 0 3.997 3.378l24.777-5.718c2.318-.535 4.413 1.507 3.936 3.838l-7.361 36.047c-.495 2.426 1.782 4.5 4.161 3.792l46.94-13.971c2.476-.737 4.686 1.474 4.015 4.02l-9.52 36.122c-.634 2.406 1.514 4.613 3.961 4.072l30.982-6.852c2.492-.551 4.58 1.691 3.914 4.204l-12.872 48.552c-.602 2.27 1.569 4.35 3.864 3.702l22.686-6.405c.82-.231 1.34-1.042 1.2-1.884L193.456 9.873a3.268 3.268 0 0 0-3.328-3.798z"></path></svg>
